<svg width="690" height="720" xmlns="http://www.w3.org/2000/svg" xmlns:xlink="http://www.w3.org/1999/xlink" xml:space="preserve" overflow="hidden"><g transform="translate(-15 0)"><path d="M307.226 497.642C305.901 494.179 207.12 267.744 187.955 224.23 123.834 77.9958 115.372 61.7928 93.7602 41.2079 71.0273 19.6039 51.6584 11.961 7.51718 7.17146 3.13373 6.66189 1.40065 6.05047 0.585112 4.41997-2.06539-0.573346-2.9828-0.471495 51.4544-0.471495L102.222-0.471495 131.887 67.0919C148.3 104.186 165.426 143.012 169.911 153.406 230.669 291.896 265.431 370.566 266.654 371.79 267.47 372.606 272.159 362.109 316.81 260.916 334.038 221.683 355.956 172.055 365.54 150.655 375.02 129.254 393.267 87.7789 405.908 58.532 418.649 29.1831 429.659 3.91049 430.475 2.38186L432.005-0.471495 534.968-0.471495C645.371-0.471495 640.68-0.675305 637.928 4.41997 637.012 6.25427 635.277 6.4581 619.274 7.06952 561.981 9.31144 554.947 10.7381 544.243 21.9477 535.374 31.2211 536.904 27.7564 433.636 258.878 421.71 285.781 392.858 350.186 369.718 402.056 346.577 453.926 327.105 496.93 326.595 497.642 325.984 498.458 322.622 498.867 316.709 498.867 310.488 498.867 307.636 498.458 307.226 497.642Z" fill="#B8860B" fill-rule="evenodd" transform="matrix(1 0 0 -1.0009 66.0013 499.489)"/><path d="M310.562 499.08C307.606 498.674 306.18 497.755 305.364 495.922 304.65 494.496 285.286 450.282 262.354 397.611 153.196 147.506 138.723 114.803 123.435 85.4627 103.56 47.1572 84.5014 28.6158 52.7021 16.5944 43.1213 13.0287 27.5274 9.97244 16.0104 9.36117 3.57605 8.6481 0.6203 7.73114-0.0930931 4.06362-0.39891 2.53551-0.39891 1.00732-0.0930931 0.599814 0.110749 0.0904855 53.5173-0.215197 118.543-0.215197L236.669-0.215197 236.669 2.84109C236.669 7.01807 234.631 7.73114 216.999 8.95366 190.907 10.8894 175.007 14.5569 160.84 21.9938 144.533 30.5516 137.806 42.2673 137.806 62.2349 137.806 74.6638 139.844 82.6102 149.221 106.245 159.617 132.428 166.14 147.302 183.059 183.671L196.716 213.216 266.226 213.216 335.737 213.216 342.566 197.425C346.438 188.765 364.274 148.117 382.314 107.061 400.354 66.0043 415.337 31.1627 415.643 29.6346 416.458 25.6614 412.586 20.3638 406.878 17.4094 396.176 12.0099 385.27 10.7874 330.029 8.74992L295.58 7.52741 294.663 4.98054C292.522-0.520774 281.311-0.215197 465.992-0.215197 650.163-0.215197 640.072-0.520774 637.32 4.67486 635.793 7.52741 632.837 7.83309 602.465 8.95366 554.357 10.6856 548.344 12.7231 536.827 30.7553 531.119 39.8222 489.535 131.715 351.841 440.399 339.099 469.028 328.092 493.58 327.378 495.107 326.666 496.634 325.545 498.06 324.831 498.369 322.18 499.285 314.536 499.795 310.562 499.08ZM287.936 324.771C298.331 300.931 312.294 268.84 319.022 253.457L331.253 225.441 266.43 225.135C230.86 225.033 201.507 225.135 201.303 225.339 200.488 226.052 248.39 335.161 261.64 362.871 266.328 372.55 266.532 372.855 267.755 370.513 268.469 369.187 277.54 348.609 287.936 324.771Z" fill="#B8860B" fill-rule="evenodd" transform="matrix(1 0 0 -1.0009 15.593 719.703)"/></g></svg>